<?xml version="1.0" encoding="UTF-8"?>
<svg version="1.1" xmlns="http://www.w3.org/2000/svg" width="543" height="460">
<path d="M0 0 C1.21753277 -0.00311998 2.43506554 -0.00623996 3.68949324 -0.00945449 C7.04760174 -0.01602483 10.40548472 -0.01369633 13.76357925 -0.00748205 C17.39351078 -0.00294138 21.02342315 -0.00994934 24.65335083 -0.01544189 C31.75621481 -0.02432061 38.85903645 -0.0224206 45.96190207 -0.01661661 C51.73677697 -0.01209378 57.51164003 -0.01148991 63.28651619 -0.01366425 C64.1094672 -0.01397071 64.93241821 -0.01427718 65.78030713 -0.01459293 C67.45230202 -0.0152324 69.1242969 -0.01588083 70.79629178 -0.01653811 C86.46353261 -0.02223704 102.13075001 -0.01569056 117.79798699 -0.00493738 C131.22947722 0.00399607 144.66093288 0.00244694 158.09242249 -0.0067749 C173.70331932 -0.01748813 189.31419562 -0.02168601 204.92509562 -0.01555037 C206.59113188 -0.0149133 208.25716815 -0.01428456 209.92320442 -0.01366425 C210.74284727 -0.01335569 211.56249012 -0.01304714 212.40697063 -0.01272924 C218.17170877 -0.01100534 223.93643385 -0.01391087 229.70116997 -0.01862335 C236.73112021 -0.02424395 243.76102582 -0.02269105 250.79097097 -0.01206186 C254.37499394 -0.00682075 257.95894259 -0.00472166 261.54296494 -0.01136017 C265.43420251 -0.01845846 269.3253195 -0.0099587 273.21655273 0 C274.90290538 -0.00669217 274.90290538 -0.00669217 276.62332577 -0.01351953 C289.48451025 0.05021733 298.35450332 2.11550776 307.74989319 11.28131104 C316.79336846 21.17973671 317.98013532 31.80095864 317.9324646 44.77786255 C317.93629015 45.89683335 317.94011569 47.01580416 317.94405717 48.16868317 C317.95432759 51.8962158 317.95040633 55.62359268 317.94642639 59.35113525 C317.95077615 62.03261826 317.9558962 64.71409007 317.96191406 67.39556885 C317.9746278 73.91007712 317.97645893 80.42454411 317.9741138 86.9390627 C317.97232679 92.23716223 317.97408847 97.53524928 317.97833824 102.83334732 C317.97893343 103.58897673 317.97952862 104.34460613 317.98014184 105.1231334 C317.98135366 106.65846728 317.9825678 108.19380117 317.98378422 109.72913505 C317.9946469 124.10978187 317.99250327 138.49040522 317.98639937 152.87105335 C317.98123108 166.00878872 317.99248563 179.14644992 318.01149759 192.28417061 C318.03089862 205.79498041 318.03912804 219.30575517 318.03537434 232.81657898 C318.03346577 240.39346962 318.03591628 247.97029714 318.05008888 255.54717636 C318.06203255 261.99735291 318.06337422 268.44742749 318.05129872 274.89760552 C318.04543093 278.18422055 318.04589553 281.47061194 318.05630112 284.75722122 C318.06679536 288.33035323 318.05864584 291.90299012 318.04598999 295.47610474 C318.05336428 296.50044927 318.06073856 297.52479381 318.06833631 298.5801791 C317.98744743 309.49223783 316.05012856 319.87678958 308.67176819 328.25396729 C301.47430207 335.20324491 291.79927663 340.36810931 281.64813995 340.38818836 C280.08182776 340.39487513 280.08182776 340.39487513 278.48387289 340.40169698 C277.33283024 340.40151262 276.1817876 340.40132825 274.99586487 340.40113831 C273.77599711 340.40481499 272.55612935 340.40849168 271.2992959 340.41227978 C267.90682501 340.42140949 264.51440251 340.42601696 261.12192392 340.4286691 C257.46528273 340.43257159 253.80865556 340.44215013 250.15202332 340.45088196 C241.31666131 340.4706504 232.48129816 340.48071415 223.64591956 340.48960975 C219.48423167 340.493993 215.32254504 340.49935981 211.16085815 340.50459862 C197.32386794 340.52161311 183.48687852 340.53610611 169.64987946 340.54334736 C166.05854288 340.54525724 162.4672063 340.54717757 158.87586975 340.5491333 C157.98326724 340.54961704 157.09066473 340.55010078 156.17101365 340.55059918 C141.71944275 340.55889505 127.26795474 340.58422347 112.81642002 340.61671398 C97.97581741 340.64980677 83.13525688 340.66779822 68.29461718 340.6709916 C59.96365248 340.6731549 51.63280858 340.68187691 43.30187988 340.70745277 C36.20481518 340.72919033 29.1079006 340.73719531 22.01080638 340.72748599 C18.39217925 340.72294976 14.77386167 340.72478743 11.15527725 340.74424744 C7.22457107 340.76520249 3.29428816 340.75486622 -0.63645935 340.74171448 C-2.33625466 340.75816835 -2.33625466 340.75816835 -4.07038927 340.77495462 C-13.98618072 340.6950666 -24.77432272 338.09873389 -32.32823181 331.25396729 C-41.91110031 319.42241123 -44.48135578 308.32234427 -44.46867371 293.44560242 C-44.47164483 292.35525619 -44.47461595 291.26490996 -44.47767711 290.14152294 C-44.48635065 286.48685794 -44.48787123 282.83222575 -44.48936462 279.17755127 C-44.49399379 276.55739777 -44.49901858 273.93724494 -44.50440979 271.3170929 C-44.51797125 264.19696939 -44.52401464 257.07685153 -44.52842045 249.95671725 C-44.53118701 245.50651922 -44.53542516 241.05632335 -44.53992462 236.60612679 C-44.55211527 224.27280406 -44.56241444 211.93948306 -44.56579971 199.60615444 C-44.56601928 198.81731566 -44.56623885 198.02847688 -44.56646506 197.21573389 C-44.56668334 196.4250574 -44.56690162 195.63438091 -44.56712651 194.81974453 C-44.56756997 193.21765927 -44.56801653 191.61557402 -44.56846619 190.01348877 C-44.56868762 189.21880706 -44.56890905 188.42412534 -44.56913719 187.60536236 C-44.57308199 174.73964577 -44.59052724 161.87398593 -44.61382571 149.00829124 C-44.63758011 135.78350114 -44.65000345 122.55873946 -44.65116763 109.33392769 C-44.65208219 101.9151116 -44.65777881 94.49636942 -44.67598724 87.07757378 C-44.69144364 80.75798936 -44.69647628 74.4385017 -44.68824914 68.11890196 C-44.68436188 64.89901777 -44.68683388 61.67936733 -44.69930649 58.45949936 C-44.82998657 22.60917307 -44.82998657 22.60917307 -33.37120056 10.12115479 C-23.44344577 1.04760452 -12.97050615 -0.05137056 0 0 Z " fill="#02CF9D" transform="translate(131.32823181152344,54.74603271484375)"/>
<path d="M0 0 C3.73265422 7.46530845 -0.56354928 24.916444 -2 33 C-3.06640625 35.45703125 -3.06640625 35.45703125 -4 37 C-6.33294775 37.04241723 -8.66702567 37.04092937 -11 37 C-12 36 -12 36 -12.1875 32.25 C-12.13767478 26.08163801 -11.04973907 20.06411769 -10 14 C-13.90392991 17.33608556 -17.74493858 20.67755163 -21.3125 24.375 C-25.04966507 28.1804238 -29.15703551 31.4672548 -33.3046875 34.8125 C-36.95895708 37.77828401 -40.49014069 40.86570929 -44 44 C-44.74507812 44.66386719 -45.49015625 45.32773438 -46.2578125 46.01171875 C-51.08899606 50.33803586 -55.86724403 54.71840031 -60.625 59.125 C-73.34631263 70.89754175 -73.34631263 70.89754175 -78 74 C-82.38888905 73.76488094 -84.41971811 72.06366507 -87.5 69.0625 C-91.50442736 65.34024368 -95.55747641 61.74305219 -99.8125 58.3125 C-100.35132813 57.85431885 -100.89015625 57.3961377 -101.4453125 56.92407227 C-103.17418701 55.48580871 -103.17418701 55.48580871 -106 54 C-109.70958606 54.73542814 -111.79205558 56.45441263 -114.3125 59.1875 C-116.87384213 61.86093588 -119.48339822 64.41297823 -122.25 66.875 C-122.89453125 67.44992188 -123.5390625 68.02484375 -124.203125 68.6171875 C-126 70 -126 70 -129 71 C-129 71.66 -129 72.32 -129 73 C-133.47058824 77 -133.47058824 77 -136 77 C-136 77.66 -136 78.32 -136 79 C-137.3984375 80.41015625 -137.3984375 80.41015625 -139.375 82.0625 C-142.57546345 84.77923786 -145.71306063 87.54335219 -148.8125 90.375 C-152.30864639 93.53869075 -155.88386081 96.55092333 -159.5625 99.5 C-163.91941332 103.01857466 -167.82740106 106.7772899 -171.7265625 110.7890625 C-174.93298765 113.9073385 -178.40064652 116.63430364 -181.93359375 119.37109375 C-184.06011874 120.98173734 -184.06011874 120.98173734 -186 123 C-189 123.25 -189 123.25 -192 123 C-194 121 -194 121 -194.34765625 118.55859375 C-194 116 -194 116 -192.55859375 114.47265625 C-191.85863281 114.00730469 -191.15867188 113.54195313 -190.4375 113.0625 C-185.85696707 109.75673803 -181.78319648 106.12411067 -177.6875 102.25 C-177.04409668 101.64349609 -176.40069336 101.03699219 -175.73779297 100.41210938 C-174.44468938 99.1925549 -173.15220271 97.97234594 -171.86035156 96.75146484 C-163.24222426 88.63775812 -154.56107651 80.56584583 -145.25 73.25 C-139.22226327 68.46462122 -133.62432476 63.24402627 -128 58 C-126.25891867 56.38102176 -124.51670573 54.7632942 -122.77270508 53.14746094 C-121.664061 52.12000664 -120.55702405 51.0908144 -119.4519043 50.05957031 C-117.97977566 48.69350953 -116.49027138 47.34624515 -115 46 C-114.19433594 45.20464844 -113.38867188 44.40929687 -112.55859375 43.58984375 C-110 42 -110 42 -106.58984375 41.9296875 C-102.38267796 43.18405467 -99.7248233 45.21081521 -96.5625 48.125 C-96.00046875 48.61838867 -95.4384375 49.11177734 -94.859375 49.62011719 C-92.37798806 51.80630464 -89.95584436 54.04196552 -87.55859375 56.3203125 C-86.53958984 57.27550781 -86.53958984 57.27550781 -85.5 58.25 C-84.9328125 58.81203125 -84.365625 59.3740625 -83.78125 59.953125 C-81.99898808 61.2363445 -81.99898808 61.2363445 -79.62036133 60.76123047 C-76.70582249 59.91453969 -75.44807044 58.96931168 -73.29296875 56.8671875 C-72.62330078 56.22523438 -71.95363281 55.58328125 -71.26367188 54.921875 C-70.2359668 53.90867187 -70.2359668 53.90867187 -69.1875 52.875 C-67.82812367 51.55855134 -66.46744774 50.24344331 -65.10546875 48.9296875 C-64.08936523 47.94718018 -64.08936523 47.94718018 -63.05273438 46.94482422 C-59.79330593 43.85674061 -56.40812923 40.92199572 -53 38 C-52.41275146 37.4961377 -51.82550293 36.99227539 -51.22045898 36.47314453 C-49.52385684 35.02153996 -47.82454907 33.57315235 -46.125 32.125 C-41.10211061 27.83340994 -36.14999533 23.47538704 -31.25390625 19.0390625 C-29.03581075 17.03239725 -26.80568828 15.04106534 -24.5625 13.0625 C-23.94503906 12.51722656 -23.32757813 11.97195312 -22.69140625 11.41015625 C-21 10 -21 10 -18 8 C-18.71655762 8.0407666 -19.43311523 8.0815332 -20.17138672 8.12353516 C-23.4054364 8.301484 -26.64009207 8.4634382 -29.875 8.625 C-31.00292969 8.68945312 -32.13085938 8.75390625 -33.29296875 8.8203125 C-34.36933594 8.871875 -35.44570313 8.9234375 -36.5546875 8.9765625 C-37.54968262 9.02893066 -38.54467773 9.08129883 -39.56982422 9.13525391 C-42 9 -42 9 -44 7 C-44.125 3.875 -44.125 3.875 -44 1 C-40.96276274 -0.74485157 -38.67987785 -1.27321559 -35.19140625 -1.37890625 C-34.27939453 -1.41306641 -33.36738281 -1.44722656 -32.42773438 -1.48242188 C-31.48220703 -1.50884766 -30.53667969 -1.53527344 -29.5625 -1.5625 C-27.68868547 -1.62278014 -25.81497702 -1.68647357 -23.94140625 -1.75390625 C-23.11326416 -1.77783447 -22.28512207 -1.8017627 -21.43188477 -1.82641602 C-4.75701142 -3.01664139 -4.75701142 -3.01664139 0 0 Z " fill="#010C08" transform="translate(344,97)"/>
<path d="M0 0 C1.89746094 -0.3742218 1.89746094 -0.3742218 4.234375 -0.37231445 C5.10868164 -0.37854324 5.98298828 -0.38477203 6.88378906 -0.39118958 C8.30256348 -0.37737495 8.30256348 -0.37737495 9.75 -0.36328125 C11.2035791 -0.36402901 11.2035791 -0.36402901 12.68652344 -0.36479187 C14.73765104 -0.36244884 16.78878138 -0.35270694 18.83984375 -0.33618164 C21.9872395 -0.31259562 25.13378841 -0.31561814 28.28125 -0.32226562 C30.27083841 -0.31668893 32.26042323 -0.30957911 34.25 -0.30078125 C35.19584961 -0.30169266 36.14169922 -0.30260406 37.11621094 -0.30354309 C38.4276709 -0.28924507 38.4276709 -0.28924507 39.765625 -0.2746582 C40.53680664 -0.27005081 41.30798828 -0.26544342 42.10253906 -0.26069641 C44 0 44 0 46 2 C46.24888897 4.25514984 46.24888897 4.25514984 46.24723816 7.12438965 C46.25143265 8.20967453 46.25562714 9.29495941 46.25994873 10.41313171 C46.25432922 11.60904434 46.24870972 12.80495697 46.24291992 14.03710938 C46.24481827 15.29239944 46.24671661 16.54768951 46.24867249 17.84101868 C46.25352833 21.28931987 46.24585599 24.73749207 46.23571944 28.18577766 C46.22695061 31.78966251 46.22869616 35.39354318 46.2290802 38.99743652 C46.22814301 45.05023361 46.21945169 51.10298063 46.20581055 57.15576172 C46.19008444 64.15967555 46.18481241 71.16353452 46.1855461 78.16746473 C46.18615593 84.89719881 46.18105463 91.62691498 46.17275429 98.35664368 C46.16921834 101.22422933 46.16739059 104.09180864 46.16686058 106.95939636 C46.16567185 110.96058761 46.15596909 114.96171354 46.14526367 118.96289062 C46.14571686 120.15880325 46.14617004 121.35471588 46.14663696 122.58686829 C46.14237198 123.67215317 46.13810699 124.75743805 46.13371277 125.87561035 C46.13203692 126.82245949 46.13036108 127.76930862 46.12863445 128.74485016 C46 131 46 131 45 133 C42.69 133 40.38 133 38 133 C36.76228782 130.52457564 36.87690228 128.89717764 36.87974548 126.12789917 C36.87837082 125.09862305 36.87699615 124.06934692 36.87557983 123.00888062 C36.88097275 121.30848129 36.88097275 121.30848129 36.88647461 119.57373047 C36.88632858 118.38350281 36.88618256 117.19327515 36.8860321 115.96697998 C36.88661042 112.6985906 36.89163427 109.43024373 36.89860606 106.16186285 C36.90484683 102.74789457 36.90544397 99.3339255 36.90663147 95.91995239 C36.90974265 89.45305527 36.91795317 82.98617501 36.92798096 76.51928532 C36.93914871 69.15783358 36.94465422 61.79638104 36.94967639 54.43492293 C36.96013595 39.28993768 36.97847879 24.14497433 37 9 C27.43 9 17.86 9 8 9 C8.01047363 12.68526855 8.02094727 16.37053711 8.03173828 20.16748047 C8.06481599 32.3172606 8.08704652 44.46703756 8.10362434 56.6168499 C8.11394638 63.98628913 8.12802435 71.35568576 8.15087891 78.72509766 C8.17078448 85.14666621 8.18370969 91.56820393 8.18817699 97.98980248 C8.19078919 101.3914529 8.19694809 104.79301509 8.21146011 108.1946373 C8.22588979 111.98772251 8.22798152 115.78062241 8.22705078 119.57373047 C8.23424133 120.70733002 8.24143188 121.84092957 8.24884033 123.00888062 C8.246091 124.03815674 8.24334167 125.06743286 8.24050903 126.12789917 C8.24235262 127.02572554 8.24419621 127.9235519 8.24609566 128.84858513 C8 131 8 131 6 133 C3 133.3125 3 133.3125 0 133 C-2.20775111 129.68837333 -2.25084438 128.68911484 -2.25396729 124.8380127 C-2.25960693 123.76962662 -2.26524658 122.70124054 -2.27105713 121.60047913 C-2.26498444 119.84241188 -2.26498444 119.84241188 -2.25878906 118.04882812 C-2.2622937 116.81450546 -2.26579834 115.5801828 -2.26940918 114.30845642 C-2.27671103 110.92209117 -2.27498874 107.53596982 -2.26865101 104.14961815 C-2.26359136 100.60759526 -2.26828236 97.06558287 -2.27142334 93.52355957 C-2.27506309 87.57509487 -2.27026367 81.62667982 -2.26074219 75.67822266 C-2.2498576 68.79868037 -2.25338317 61.91925662 -2.264395 55.0397172 C-2.27346763 49.1356144 -2.27475327 43.2315473 -2.26951766 37.32743979 C-2.26639782 33.80006562 -2.26598898 30.27274719 -2.27259064 26.74537659 C-2.27943444 22.81392805 -2.26995169 18.88261256 -2.25878906 14.95117188 C-2.26283752 13.77912704 -2.26688599 12.60708221 -2.27105713 11.39952087 C-2.26541748 10.3311348 -2.25977783 9.26274872 -2.25396729 8.1619873 C-2.25321323 7.23210747 -2.25245918 6.30222763 -2.25168228 5.34416962 C-2 3 -2 3 0 0 Z " fill="#000907" transform="translate(310,153)"/>
<path d="M0 0 C0.33 0.99 0.66 1.98 1 3 C2.65 3 4.3 3 6 3 C6.26554687 3.55429687 6.53109375 4.10859375 6.8046875 4.6796875 C7.15789062 5.40414063 7.51109375 6.12859375 7.875 6.875 C8.22304687 7.59429687 8.57109375 8.31359375 8.9296875 9.0546875 C9.96557543 11.15135019 9.96557543 11.15135019 12 13 C12.35191406 12.278125 12.70382813 11.55625 13.06640625 10.8125 C14.55885877 8.00684514 15.99986675 5.47304979 18 3 C21.875 2.375 21.875 2.375 25 3 C25 3.66 25 4.32 25 5 C25.99 5 26.98 5 28 5 C28 4.34 28 3.68 28 3 C31.0625 2.375 31.0625 2.375 35 3 C37.88393739 5.98338351 39.89377063 9.44153029 42 13 C42.87785156 14.43085938 42.87785156 14.43085938 43.7734375 15.890625 C45.20669264 18.24573908 46.60662804 20.62107226 48 23 C48.33 16.4 48.66 9.8 49 3 C50.98 3 52.96 3 55 3 C55 13.23 55 23.46 55 34 C53.02 34 51.04 34 49 34 C46.83984375 31.4375 46.83984375 31.4375 44.9375 28 C44.30714844 26.88625 43.67679687 25.7725 43.02734375 24.625 C42.35832031 23.42875 41.68929687 22.2325 41 21 C38.525 17.04 38.525 17.04 36 13 C35.67 19.93 35.34 26.86 35 34 C32.03 34 29.06 34 26 34 C26 34.66 26 35.32 26 36 C18.63803681 36.49079755 18.63803681 36.49079755 15.5625 34.125 C14 32 14 32 13 30 C10.03 30.495 10.03 30.495 7 31 C6.67 31.99 6.34 32.98 6 34 C4.88625 33.979375 3.7725 33.95875 2.625 33.9375 C-0.83215921 33.73619282 -0.83215921 33.73619282 -3 35 C-4.52148326 35.08372659 -6.04655778 35.10730027 -7.5703125 35.09765625 C-8.37742676 35.09515869 -9.18454102 35.09266113 -10.01611328 35.09008789 C-11.0420459 35.08098389 -12.06797852 35.07187988 -13.125 35.0625 C-18.013125 35.0315625 -18.013125 35.0315625 -23 35 C-23 24.44 -23 13.88 -23 3 C-12.625 3.1875 -12.625 3.1875 -9.35791016 3.27026367 C-8.51019043 3.27775635 -7.6624707 3.28524902 -6.7890625 3.29296875 C-5.91975098 3.3086792 -5.05043945 3.32438965 -4.15478516 3.34057617 C-3.0881665 3.17199097 -3.0881665 3.17199097 -2 3 C-1.34 2.01 -0.68 1.02 0 0 Z " fill="#07C797" transform="translate(207,314)"/>
<path d="M0 0 C1.2765873 -0.00945648 1.2765873 -0.00945648 2.57896423 -0.019104 C3.49980301 -0.01505554 4.42064178 -0.01100708 5.36938477 -0.00683594 C6.31386978 -0.00874939 7.2583548 -0.01066284 8.23146057 -0.01263428 C10.23129543 -0.01399679 12.23113911 -0.01029573 14.23095703 -0.00195312 C17.29487987 0.00873357 20.35821477 -0.00184009 23.42211914 -0.01464844 C25.36287565 -0.01332662 27.30363178 -0.01076377 29.24438477 -0.00683594 C30.16319931 -0.0108844 31.08201385 -0.01493286 32.02867126 -0.019104 C32.88288162 -0.01279968 33.73709198 -0.00649536 34.6171875 0 C35.36838364 0.00159119 36.11957977 0.00318237 36.89353943 0.00482178 C38.87329102 0.25878906 38.87329102 0.25878906 41.87329102 2.25878906 C42.17008079 5.1185234 42.27222319 7.7619873 42.24560547 10.62402344 C42.24925613 11.48917068 42.2529068 12.35431793 42.25666809 13.24568176 C42.26479586 16.11483185 42.25114511 18.9834211 42.23657227 21.85253906 C42.23605393 23.84029134 42.23657061 25.82804413 42.23808289 27.8157959 C42.23799306 31.9855106 42.22754305 36.15503235 42.20947266 40.32470703 C42.18678517 45.67844496 42.18624031 51.03190076 42.1929903 56.38567352 C42.1963265 60.49137901 42.18970679 64.59701978 42.17986107 68.70271301 C42.17600275 70.67714601 42.17486346 72.6515862 42.17644691 74.62602234 C42.17681641 77.3820068 42.16423011 80.13762505 42.14794922 82.89355469 C42.15042664 83.71543777 42.15290405 84.53732086 42.15545654 85.3841095 C42.10203141 91.03004867 42.10203141 91.03004867 39.87329102 93.25878906 C36.87329102 93.50878906 36.87329102 93.50878906 33.87329102 93.25878906 C31.36130511 90.74680316 31.63804964 89.23246065 31.62445068 85.80612183 C31.63164124 85.04655182 31.63883179 84.28698181 31.64624023 83.50439453 C31.64594818 82.70430969 31.64565613 81.90422485 31.64535522 81.07989502 C31.64675146 78.42847953 31.66232632 75.77734312 31.67797852 73.12597656 C31.68170761 71.29037632 31.68455507 69.45477409 31.68655396 67.61917114 C31.69419861 62.78251675 31.71385421 57.94598203 31.73596191 53.109375 C31.75640245 48.17612324 31.76555183 43.24285219 31.77563477 38.30957031 C31.79709936 28.62591546 31.83228825 18.94238092 31.87329102 9.25878906 C22.30329102 9.25878906 12.73329102 9.25878906 2.87329102 9.25878906 C2.87852783 11.76786865 2.88376465 14.27694824 2.88916016 16.86206055 C2.90569573 25.1322179 2.91676211 33.40237596 2.92510319 41.67254543 C2.93033208 46.68901376 2.93742985 51.70546521 2.94873047 56.72192383 C2.95955912 61.558886 2.9655678 66.3958319 2.96816826 71.23280525 C2.97002255 73.08247191 2.97364323 74.93213764 2.97902107 76.78179741 C2.98623121 79.3632592 2.98728197 81.94465288 2.98681641 84.52612305 C2.99041168 85.29863907 2.99400696 86.07115509 2.99771118 86.86708069 C2.98734318 92.1447369 2.98734318 92.1447369 1.87329102 93.25878906 C-1.06420898 93.44628906 -1.06420898 93.44628906 -4.12670898 93.25878906 C-6.71427866 90.67121939 -6.37120686 88.91011178 -6.39776611 85.3841095 C-6.39371765 84.56222641 -6.38966919 83.74034332 -6.38549805 82.89355469 C-6.38900269 82.02840744 -6.39250732 81.16326019 -6.39611816 80.27189636 C-6.40494405 77.40286308 -6.39908332 74.53407499 -6.39233398 71.66503906 C-6.39368039 69.6772863 -6.39562071 67.68953386 -6.39813232 65.70178223 C-6.40108475 61.53211335 -6.39678213 57.36253004 -6.38745117 53.19287109 C-6.37605659 47.83914631 -6.38261543 42.48562203 -6.3945961 37.1319046 C-6.4018115 33.02620931 -6.39952824 28.92056182 -6.39434052 24.81486511 C-6.39300313 22.84042843 -6.39465482 20.86598746 -6.39929962 18.89155579 C-6.4043596 16.13559415 -6.39666212 13.37996054 -6.38549805 10.62402344 C-6.38954651 9.80214035 -6.39359497 8.98025726 -6.39776611 8.13346863 C-6.35529322 2.49477464 -5.96369412 0.01264571 0 0 Z " fill="#000604" transform="translate(249.126708984375,192.7412109375)"/>
<path d="M0 0 C0.85428589 -0.00630432 1.70857178 -0.01260864 2.58874512 -0.019104 C3.51272095 -0.01505554 4.43669678 -0.01100708 5.38867188 -0.00683594 C6.80895691 -0.00970612 6.80895691 -0.00970612 8.25793457 -0.01263428 C10.26196559 -0.01399667 12.26600542 -0.0102965 14.27001953 -0.00195312 C17.34492741 0.00874559 20.41925101 -0.00184666 23.49414062 -0.01464844 C25.43815234 -0.01332685 27.38216368 -0.01076448 29.32617188 -0.00683594 C30.71213562 -0.01290863 30.71213562 -0.01290863 32.12609863 -0.019104 C33.40752747 -0.00964752 33.40752747 -0.00964752 34.71484375 0 C35.4682605 0.00159119 36.22167725 0.00318237 36.9979248 0.00482178 C38.85742188 0.25878906 38.85742188 0.25878906 40.85742188 2.25878906 C41.11138916 4.23217773 41.11138916 4.23217773 41.11621094 6.67675781 C41.12251526 7.59110596 41.12881958 8.5054541 41.13531494 9.44750977 C41.13126648 10.43710693 41.12721802 11.4267041 41.12304688 12.44628906 C41.12591705 13.9664563 41.12591705 13.9664563 41.12884521 15.51733398 C41.13020779 17.66260018 41.12650635 19.80787459 41.11816406 21.953125 C41.10746569 25.24530478 41.11805707 28.53693884 41.13085938 31.82910156 C41.12953779 33.90983194 41.12697543 35.99056197 41.12304688 38.07128906 C41.12709534 39.06088623 41.1311438 40.0504834 41.13531494 41.07006836 C41.12901062 41.9844165 41.1227063 42.89876465 41.11621094 43.84082031 C41.11461975 44.64753174 41.11302856 45.45424316 41.11138916 46.28540039 C40.85742188 48.25878906 40.85742188 48.25878906 38.85742188 50.25878906 C35.73242188 50.38378906 35.73242188 50.38378906 32.85742188 50.25878906 C31.21796225 46.97986981 31.7371201 43.35265373 31.75976562 39.75097656 C31.76118057 38.91035675 31.76259552 38.06973694 31.76405334 37.2036438 C31.7696595 34.51365631 31.78221301 31.82375147 31.79492188 29.13378906 C31.79993608 27.31217568 31.80449913 25.49056099 31.80859375 23.66894531 C31.81878087 19.19883562 31.83835503 14.72890507 31.85742188 10.25878906 C22.28742188 10.25878906 12.71742188 10.25878906 2.85742188 10.25878906 C2.880625 12.97871094 2.90382812 15.69863281 2.92773438 18.50097656 C2.94332181 21.12873874 2.95547172 23.75649581 2.96728516 26.38427734 C2.97735672 28.21372779 2.99101463 30.04316209 3.00830078 31.87255859 C3.03249864 34.4987384 3.0438932 37.12470581 3.05273438 39.75097656 C3.06305695 40.5718576 3.07337952 41.39273865 3.08401489 42.23849487 C3.08441372 44.24668049 2.97991727 46.25434288 2.85742188 48.25878906 C0.85742188 50.25878906 0.85742188 50.25878906 -2.20507812 50.44628906 C-5.14257812 50.25878906 -5.14257812 50.25878906 -6.14257812 49.25878906 C-6.24599063 47.79622729 -6.28108134 46.32874642 -6.2878418 44.86254883 C-6.29422165 43.9281044 -6.3006015 42.99365997 -6.30717468 42.03089905 C-6.30828751 41.01426682 -6.30940033 39.99763458 -6.31054688 38.95019531 C-6.31553947 37.39461159 -6.31553947 37.39461159 -6.32063293 35.80760193 C-6.32570672 33.60928797 -6.32804112 31.41096629 -6.32788086 29.21264648 C-6.3300665 25.83922705 -6.34821527 22.46613489 -6.3671875 19.09277344 C-6.37012142 16.96191519 -6.37210623 14.83105537 -6.37304688 12.70019531 C-6.38023239 11.68558731 -6.38741791 10.67097931 -6.39482117 9.62562561 C-6.39174454 8.68802902 -6.38866791 7.75043243 -6.38549805 6.78442383 C-6.38692307 5.9569313 -6.38834808 5.12943878 -6.38981628 4.27687073 C-5.89076282 0.20334643 -3.54159445 0.00747971 0 0 Z " fill="#000906" transform="translate(185.142578125,235.7412109375)"/>
<path d="M0 0 C0.33 0.99 0.66 1.98 1 3 C2.65 3 4.3 3 6 3 C6 3.33 6 3.66 6 4 C4.35 4 2.7 4 1 4 C1.63228516 4.96099609 1.63228516 4.96099609 2.27734375 5.94140625 C8.45706124 15.69808963 8.45706124 15.69808963 8 21 C2.64450064 32.79122728 2.64450064 32.79122728 -3 35 C-5.29003906 35.22705078 -5.29003906 35.22705078 -7.765625 35.1953125 C-8.56774414 35.19031738 -9.36986328 35.18532227 -10.19628906 35.18017578 C-11.20401367 35.16196777 -12.21173828 35.14375977 -13.25 35.125 C-16.4675 35.08375 -19.685 35.0425 -23 35 C-23 24.44 -23 13.88 -23 3 C-12.625 3.1875 -12.625 3.1875 -9.35791016 3.27026367 C-8.51019043 3.27775635 -7.6624707 3.28524902 -6.7890625 3.29296875 C-5.91975098 3.3086792 -5.05043945 3.32438965 -4.15478516 3.34057617 C-3.0881665 3.17199097 -3.0881665 3.17199097 -2 3 C-1.34 2.01 -0.68 1.02 0 0 Z " fill="#08C999" transform="translate(207,314)"/>
<path d="M0 0 C4.62984438 2.43884736 7.74640562 5.61781125 10.07421875 10.2734375 C10.62117167 16.61809139 9.70967401 20.98443647 6.07421875 26.2734375 C1.80023672 30.3389326 -1.77722413 31.70505827 -7.73046875 31.6171875 C-12.93822107 30.80173874 -16.75193118 27.7774329 -19.92578125 23.7109375 C-21.53868873 18.16656805 -22.48445292 11.69052539 -20.01171875 6.26953125 C-15.15743236 0.0215949 -7.51504519 -2.83529088 0 0 Z " fill="#001B12" transform="translate(287.92578125,317.7265625)"/>
<path d="M0 0 C17.21052632 0 17.21052632 0 24 5.375 C26.98657545 9.38064343 26.51392942 14.08424043 26.46875 18.87890625 C25.73741025 23.74841008 24.05159252 26.08258694 20.3671875 29.296875 C16.06583353 31.47250184 12.84874134 31.45653232 8.125 31.25 C5.44375 31.1675 2.7625 31.085 0 31 C0 20.77 0 10.54 0 0 Z " fill="#00140C" transform="translate(303,317)"/>
<path d="M0 0 C1.21753277 -0.00311998 2.43506554 -0.00623996 3.68949324 -0.00945449 C7.04760174 -0.01602483 10.40548472 -0.01369633 13.76357925 -0.00748205 C17.39351078 -0.00294138 21.02342315 -0.00994934 24.65335083 -0.01544189 C31.75621481 -0.02432061 38.85903645 -0.0224206 45.96190207 -0.01661661 C51.73677697 -0.01209378 57.51164003 -0.01148991 63.28651619 -0.01366425 C64.1094672 -0.01397071 64.93241821 -0.01427718 65.78030713 -0.01459293 C67.45230202 -0.0152324 69.1242969 -0.01588083 70.79629178 -0.01653811 C86.46353261 -0.02223704 102.13075001 -0.01569056 117.79798699 -0.00493738 C131.22947722 0.00399607 144.66093288 0.00244694 158.09242249 -0.0067749 C173.70331932 -0.01748813 189.31419562 -0.02168601 204.92509562 -0.01555037 C206.59113188 -0.0149133 208.25716815 -0.01428456 209.92320442 -0.01366425 C210.74284727 -0.01335569 211.56249012 -0.01304714 212.40697063 -0.01272924 C218.17170877 -0.01100534 223.93643385 -0.01391087 229.70116997 -0.01862335 C236.73112021 -0.02424395 243.76102582 -0.02269105 250.79097097 -0.01206186 C254.37499394 -0.00682075 257.95894259 -0.00472166 261.54296494 -0.01136017 C265.43420251 -0.01845846 269.3253195 -0.0099587 273.21655273 0 C274.90290538 -0.00669217 274.90290538 -0.00669217 276.62332577 -0.01351953 C293.20539669 0.06865713 293.20539669 0.06865713 297.44733375 3.82719398 C298.0534288 4.53344676 298.0534288 4.53344676 298.67176819 5.25396729 C297.02176819 5.58396729 295.37176819 5.91396729 293.67176819 6.25396729 C293.67176819 5.59396729 293.67176819 4.93396729 293.67176819 4.25396729 C291.03176819 4.25396729 288.39176819 4.25396729 285.67176819 4.25396729 C285.67176819 3.59396729 285.67176819 2.93396729 285.67176819 2.25396729 C187.33176819 2.25396729 88.99176819 2.25396729 -12.32823181 2.25396729 C-12.32823181 2.91396729 -12.32823181 3.57396729 -12.32823181 4.25396729 C-18.26823181 4.74896729 -18.26823181 4.74896729 -24.32823181 5.25396729 C-24.32823181 5.91396729 -24.32823181 6.57396729 -24.32823181 7.25396729 C-25.64823181 6.92396729 -26.96823181 6.59396729 -28.32823181 6.25396729 C-19.22815085 0.44540497 -10.63270967 -0.04211156 0 0 Z " fill="#72E0C6" transform="translate(131.32823181152344,54.74603271484375)"/>
<path d="M0 0 C6 0 6 0 7.90625 1.8359375 C8.4321875 2.67382812 8.958125 3.51171875 9.5 4.375 C10.07878906 5.27734375 10.65757812 6.1796875 11.25390625 7.109375 C11.83011719 8.06328125 12.40632812 9.0171875 13 10 C13.58652344 10.95390625 14.17304688 11.9078125 14.77734375 12.890625 C16.20779619 15.24666431 17.60696421 17.62164622 19 20 C19.33 13.4 19.66 6.8 20 0 C21.98 0 23.96 0 26 0 C26 10.23 26 20.46 26 31 C24.02 31 22.04 31 20 31 C17.83984375 28.4375 17.83984375 28.4375 15.9375 25 C15.30714844 23.88625 14.67679688 22.7725 14.02734375 21.625 C13.35832031 20.42875 12.68929687 19.2325 12 18 C9.525 14.04 9.525 14.04 7 10 C6.67 16.93 6.34 23.86 6 31 C4.02 31 2.04 31 0 31 C0 20.77 0 10.54 0 0 Z " fill="#02271C" transform="translate(236,317)"/>
<path d="M0 0 C9.57 0 19.14 0 29 0 C29.33 27.06 29.66 54.12 30 82 C32.31 82.66 34.62 83.32 37 84 C37 84.33 37 84.66 37 85 C33.625 85.125 33.625 85.125 30 85 C24.96181683 79.96181683 26.89338496 66.11764081 26.88361454 59.24986839 C26.88676357 57.15874666 26.89443626 55.06767117 26.90234375 52.9765625 C26.90421509 51.49441578 26.9056356 50.01226842 26.90663147 48.53012085 C26.91040036 44.68007619 26.9201806 40.8300709 26.93133545 36.9800415 C26.94167253 33.03097058 26.94615509 29.08189313 26.95117188 25.1328125 C26.96180956 17.42185521 26.97935874 9.71093819 27 2 C18.75 2 10.5 2 2 2 C2.00523682 4.05766602 2.01047363 6.11533203 2.01586914 8.23535156 C2.03252845 15.0765137 2.04352031 21.91767679 2.05181217 28.75885391 C2.05700407 32.90174697 2.06403363 37.04461902 2.07543945 41.1875 C2.08640084 45.1945796 2.09230457 49.20163916 2.09487724 53.2087326 C2.09670784 54.72833318 2.10028182 56.24793281 2.10573006 57.76752472 C2.17390969 77.59403268 2.17390969 77.59403268 1 84 C-1 86 -1 86 -3.625 86.125 C-4.40875 86.08375 -5.1925 86.0425 -6 86 C-6 85.34 -6 84.68 -6 84 C-3.525 83.505 -3.525 83.505 -1 83 C-0.67 55.61 -0.34 28.22 0 0 Z " fill="#10B48B" transform="translate(252,202)"/>
<path d="M0 0 C4.56944444 2.13888889 4.56944444 2.13888889 6 5 C6.42526125 9.62062705 6.56310381 13.71290557 4.6875 18 C3 20 3 20 0 22 C-7.59668508 22.55248619 -7.59668508 22.55248619 -11 20 C-14.33798406 16.18516108 -14.64066436 12.27696192 -14.47265625 7.3828125 C-13.95334437 4.76479391 -13.4151767 3.70146279 -11.5 1.875 C-7.00699393 -0.53196754 -5.03503846 -0.63936996 0 0 Z " fill="#07C999" transform="translate(286,322)"/>
<path d="M0 0 C5.94 0 11.88 0 18 0 C18 1.65 18 3.3 18 5 C14.04 5 10.08 5 6 5 C6 7.64 6 10.28 6 13 C9.63 13 13.26 13 17 13 C16.67 14.65 16.34 16.3 16 18 C12.7 18 9.4 18 6 18 C6 20.97 6 23.94 6 27 C9.96 27 13.92 27 18 27 C18 28.65 18 30.3 18 32 C12.06 32 6.12 32 0 32 C0 21.44 0 10.88 0 0 Z " fill="#003124" transform="translate(184,317)"/>
<path d="M0 0 C5.94 0 11.88 0 18 0 C18 1.65 18 3.3 18 5 C14.04 5 10.08 5 6 5 C6 7.64 6 10.28 6 13 C9.63 13 13.26 13 17 13 C17 14.65 17 16.3 17 18 C13.37 18 9.74 18 6 18 C6 20.97 6 23.94 6 27 C9.96 27 13.92 27 18 27 C18 28.32 18 29.64 18 31 C12.06 31 6.12 31 0 31 C0 20.77 0 10.54 0 0 Z " fill="#001E15" transform="translate(333,317)"/>
<path d="M0 0 C10.33333333 0 10.33333333 0 14 3 C16.69657104 7.04485657 16.5422677 10.25307196 16 15 C14.18524607 19.26467175 13.2842238 19.8578881 9 22 C6.03 22 3.06 22 0 22 C0 14.74 0 7.48 0 0 Z " fill="#03CD9B" transform="translate(308,322)"/>
<path d="M0 0 C2.29296875 -0.28125 2.29296875 -0.28125 5 0 C6.80078125 1.96875 6.80078125 1.96875 8.3125 4.5 C8.82425781 5.3353125 9.33601562 6.170625 9.86328125 7.03125 C10.23839844 7.6809375 10.61351562 8.330625 11 9 C11.56267578 8.02546875 11.56267578 8.02546875 12.13671875 7.03125 C12.64847656 6.1959375 13.16023437 5.360625 13.6875 4.5 C14.43580078 3.24703125 14.43580078 3.24703125 15.19921875 1.96875 C17 0 17 0 19.70703125 -0.28125 C20.46371094 -0.1884375 21.22039062 -0.095625 22 0 C20.76368648 4.60807766 18.9669553 7.61909758 15.92578125 11.19140625 C14.80177331 13.01192039 14.80177331 13.01192039 15.1328125 15.35546875 C16.17739626 18.5409787 17.70004098 20.96571782 19.5625 23.75 C23 28.92354125 23 28.92354125 23 30 C20.375 30.625 20.375 30.625 17 30 C14.57495765 26.88676995 12.77168347 23.51823667 11 20 C8.53553446 23.17550182 6.73362186 26.36764944 5 30 C3.02 30 1.04 30 -1 30 C-0.57847656 29.19175781 -0.15695313 28.38351562 0.27734375 27.55078125 C0.82519531 26.48214844 1.37304688 25.41351563 1.9375 24.3125 C2.48277344 23.25675781 3.02804688 22.20101563 3.58984375 21.11328125 C4.86318662 18.30205059 5.69260383 16.05833141 6 13 C4.69629971 9.87111931 3.08319992 7.13558506 1.3125 4.25 C0 2 0 2 0 0 Z " fill="#00150E" transform="translate(208,318)"/>
<path d="M0 0 C0.33 0 0.66 0 1 0 C1.04626791 11.56960037 1.08184092 23.13917885 1.10362434 34.70885277 C1.1140774 40.08067458 1.12826429 45.45243327 1.15087891 50.82421875 C1.17255311 56.00483448 1.18455715 61.18538935 1.18975449 66.36604691 C1.19346002 68.34607527 1.20069562 70.32610018 1.21146011 72.30610275 C1.22590302 75.07181846 1.22798098 77.83728021 1.22705078 80.60302734 C1.23424133 81.42805252 1.24143188 82.2530777 1.24884033 83.10310364 C1.22810432 88.77189568 1.22810432 88.77189568 -1 91 C-4 91.25 -4 91.25 -7 91 C-9.5119859 88.4880141 -9.23524138 86.97367159 -9.24884033 83.54733276 C-9.24164978 82.78776276 -9.23445923 82.02819275 -9.22705078 81.24560547 C-9.22734283 80.44552063 -9.22763489 79.64543579 -9.22793579 78.82110596 C-9.22653956 76.16969047 -9.2109647 73.51855406 -9.1953125 70.8671875 C-9.19158341 69.03158726 -9.18873595 67.19598502 -9.18673706 65.36038208 C-9.1790924 60.52372768 -9.1594368 55.68719297 -9.1373291 50.85058594 C-9.11688857 45.91733418 -9.10773919 40.98406313 -9.09765625 36.05078125 C-9.07619167 26.36713485 -9.04204572 16.68357737 -9 7 C-8.34 7 -7.68 7 -7 7 C-6.67 34.39 -6.34 61.78 -6 90 C-4.68 90 -3.36 90 -2 90 C-0.73523497 86.2057049 -0.82303544 82.62821451 -0.79467773 78.6730957 C-0.78477814 77.82409698 -0.77487854 76.97509827 -0.76467896 76.10037231 C-0.73307417 73.29220373 -0.70831052 70.48401822 -0.68359375 67.67578125 C-0.66302334 65.72950296 -0.64202685 63.78322912 -0.62062073 61.83695984 C-0.56540901 56.71271372 -0.51599573 51.58842735 -0.46777344 46.46411133 C-0.41755187 41.23580337 -0.36186922 36.00755392 -0.30664062 30.77929688 C-0.19907005 20.51958123 -0.09762259 10.25981479 0 0 Z " fill="#003A26" transform="translate(290,195)"/>
<path d="M0 0 C0.6875 2.0625 0.6875 2.0625 1 4 C0.34773438 3.95359375 -0.30453125 3.9071875 -0.9765625 3.859375 C-7.09100208 3.60686127 -10.29828967 4.02162972 -15 8 C-16.81115956 9.81115956 -16.38199448 12.61278227 -16.5625 15.0625 C-16.64628906 16.16722656 -16.73007812 17.27195312 -16.81640625 18.41015625 C-16.87699219 19.26480469 -16.93757813 20.11945313 -17 21 C-17.99 21.33 -18.98 21.66 -20 22 C-21.56839073 17.19680338 -22.64990109 13.10636573 -22 8 C-16.66157955 -0.16464304 -9.31553406 -3.10517802 0 0 Z " fill="#001A11" transform="translate(289,318)"/>
<path d="M0 0 C1.32 0 2.64 0 4 0 C4 9.9 4 19.8 4 30 C2.35 30 0.7 30 -1 30 C-1.66 28.35 -2.32 26.7 -3 25 C-2.34 24.34 -1.68 23.68 -1 23 C-0.62904292 20.57753405 -0.62904292 20.57753405 -0.5859375 17.7734375 C-0.54726563 16.7421875 -0.50859375 15.7109375 -0.46875 14.6484375 C-0.4378125 13.56820313 -0.406875 12.48796875 -0.375 11.375 C-0.33632813 10.28703125 -0.29765625 9.1990625 -0.2578125 8.078125 C-0.16333753 5.38558835 -0.07777569 2.69306243 0 0 Z " fill="#000904" transform="translate(257,318)"/>
<path d="M0 0 C0.33 0 0.66 0 1 0 C1.04667626 15.87227227 1.08196733 31.74452608 1.10362434 47.6168499 C1.11394638 54.98628913 1.12802435 62.35568576 1.15087891 69.72509766 C1.17078448 76.14666621 1.18370969 82.56820393 1.18817699 88.98980248 C1.19078919 92.3914529 1.19694809 95.79301509 1.21146011 99.1946373 C1.22588979 102.98772251 1.22798152 106.78062241 1.22705078 110.57373047 C1.23424133 111.70733002 1.24143188 112.84092957 1.24884033 114.00888062 C1.246091 115.03815674 1.24334167 116.06743286 1.24050903 117.12789917 C1.24235262 118.02572554 1.24419621 118.9235519 1.24609566 119.84858513 C1 122 1 122 -1 124 C-4.125 124.125 -4.125 124.125 -7 124 C-7 123.67 -7 123.34 -7 123 C-5.35 123 -3.7 123 -2 123 C-1.02175352 120.06526055 -0.86415731 118.14264959 -0.84178162 115.08357239 C-0.8319928 114.06974991 -0.82220398 113.05592743 -0.81211853 112.01138306 C-0.80636307 110.90008026 -0.8006076 109.78877747 -0.79467773 108.64379883 C-0.77982834 106.88749901 -0.77982834 106.88749901 -0.76467896 105.09571838 C-0.73848839 101.88526745 -0.71662746 98.67482178 -0.69667697 95.4643271 C-0.67480789 92.10905931 -0.64742371 88.75383669 -0.62062073 85.39860535 C-0.5707063 79.04510543 -0.52576284 72.69158044 -0.48259836 66.33803147 C-0.4332153 59.10469612 -0.37830114 51.87140609 -0.32291877 44.63811457 C-0.20911792 29.75878528 -0.10227475 14.87941331 0 0 Z " fill="#003121" transform="translate(317,162)"/>
<path d="M0 0 C0.66 0 1.32 0 2 0 C2 9.9 2 19.8 2 30 C1.34 30 0.68 30 0 30 C-0.33 25.71 -0.66 21.42 -1 17 C-1.99 17.99 -2.98 18.98 -4 20 C-3.95359375 19.34773438 -3.9071875 18.69546875 -3.859375 18.0234375 C-3.60957933 11.97481381 -4.16205597 8.91736579 -8 4 C-8 3.01 -8 2.02 -8 1 C-7.34 1 -6.68 1 -6 1 C-5.34 2.32 -4.68 3.64 -4 5 C-3.67 4.01 -3.34 3.02 -3 2 C-2.01 2 -1.02 2 0 2 C0 1.34 0 0.68 0 0 Z " fill="#0CAA84" transform="translate(301,318)"/>
<path d="M0 0 C0.99 0.33 1.98 0.66 3 1 C2.67 1.33 2.34 1.66 2 2 C1.90695982 3.47354348 1.88253735 4.95150591 1.88647461 6.42797852 C1.88655014 7.36887833 1.88662567 8.30977814 1.88670349 9.27919006 C1.89186478 10.30209641 1.89702606 11.32500275 1.90234375 12.37890625 C1.9037587 13.42070541 1.90517365 14.46250458 1.90663147 15.53587341 C1.9122492 18.87811094 1.9248047 22.22028257 1.9375 25.5625 C1.94251272 27.82226466 1.94707602 30.08203037 1.95117188 32.34179688 C1.96222439 37.89455391 1.97897976 43.44727225 2 49 C6.14093698 49.20970559 6.14093698 49.20970559 10 48 C9.67 49.32 9.34 50.64 9 52 C5.6875 52.25 5.6875 52.25 2 52 C-0.74678068 49.22568969 -1.37392111 47.20076682 -1.35644531 43.35498047 C-1.35944641 42.44078339 -1.36244751 41.5265863 -1.36553955 40.58468628 C-1.35319275 39.60541168 -1.34084595 38.62613708 -1.328125 37.6171875 C-1.32625183 36.60657257 -1.32437866 35.59595764 -1.32244873 34.55471802 C-1.31573265 32.42137343 -1.301827 30.28804107 -1.28125 28.15478516 C-1.25005162 24.88041813 -1.24027412 21.60653228 -1.234375 18.33203125 C-1.22520668 16.26041077 -1.21483145 14.1887952 -1.203125 12.1171875 C-1.19887512 11.13386444 -1.19462524 10.15054138 -1.19024658 9.13742065 C-1.18063904 8.22952789 -1.17103149 7.32163513 -1.16113281 6.38623047 C-1.15430481 5.58555145 -1.14747681 4.78487244 -1.14044189 3.95993042 C-1 2 -1 2 0 0 Z " fill="#18A885" transform="translate(178,236)"/>
<path d="M0 0 C0.66 0 1.32 0 2 0 C2.10129515 6.49603988 2.17142075 12.99187668 2.21972656 19.48852539 C2.23986064 21.69921479 2.26717015 23.90985082 2.30175781 26.12036133 C2.35019629 29.29521846 2.37295072 32.46937248 2.390625 35.64453125 C2.41127014 36.63524124 2.43191528 37.62595123 2.45318604 38.64668274 C2.45348816 39.56741074 2.45379028 40.48813873 2.45410156 41.43676758 C2.46298401 42.2472908 2.47186646 43.05781403 2.48101807 43.89289856 C2 46 2 46 -0.02838135 47.78520203 C-1.00433258 48.38652702 -1.00433258 48.38652702 -2 49 C-3.32 48.34 -4.64 47.68 -6 47 C-4.35 46.34 -2.7 45.68 -1 45 C-0.67 30.15 -0.34 15.3 0 0 Z " fill="#0BA67E" transform="translate(226,239)"/>
<path d="M0 0 C0.33 0 0.66 0 1 0 C1.33 2.31 1.66 4.62 2 7 C2.66 6.34 3.32 5.68 4 5 C4 4.34 4 3.68 4 3 C5.32 3.66 6.64 4.32 8 5 C7.01 6.485 7.01 6.485 6 8 C5.75729175 11.43307165 5.75729175 11.43307165 5.875 15.1875 C5.90207031 17.09595703 5.90207031 17.09595703 5.9296875 19.04296875 C5.95289063 20.01878906 5.97609375 20.99460937 6 22 C5.34 22 4.68 22 4 22 C3.67 21.01 3.34 20.02 3 19 C2.34 18.67 1.68 18.34 1 18 C1 21.96 1 25.92 1 30 C0.67 30 0.34 30 0 30 C0 20.1 0 10.2 0 0 Z " fill="#0FB58B" transform="translate(262,318)"/>
<path d="M0 0 C0.66 0 1.32 0 2 0 C1.67 7.26 1.34 14.52 1 22 C3.31 22.33 5.62 22.66 8 23 C8 23.66 8 24.32 8 25 C2.375 25.25 2.375 25.25 -1 23 C-1.328125 20.390625 -1.328125 20.390625 -1.25 17.25 C-1.22421875 16.1775 -1.1984375 15.105 -1.171875 14 C-0.99655756 10.93991379 -0.66541225 7.9943551 0 5 C-0.66 5 -1.32 5 -2 5 C-2.33 5.99 -2.66 6.98 -3 8 C-5.0625 8.6875 -5.0625 8.6875 -7 9 C-7 9.99 -7 10.98 -7 12 C-8.98 12.66 -10.96 13.32 -13 14 C-9.49213943 9.81708722 -5.91864369 5.80979248 -2 2 C-1.34 1.34 -0.68 0.68 0 0 Z " fill="#15B28A" transform="translate(332,111)"/>
<path d="M0 0 C2.375 0.3125 2.375 0.3125 5 1 C7.39740646 4.59610969 7.23987692 6.30092327 7.1875 10.5625 C7.18105469 11.71878906 7.17460937 12.87507813 7.16796875 14.06640625 C7 17 7 17 6 19 C5.01 19 4.02 19 3 19 C2.67 19.66 2.34 20.32 2 21 C2 18 2 18 3 16 C2.96302443 13.99763053 2.84825559 11.99624857 2.6875 10 C2.60886719 8.9275 2.53023438 7.855 2.44921875 6.75 C2.25238844 3.86314797 2.25238844 3.86314797 0 2 C0 1.34 0 0.68 0 0 Z " fill="#000F09" transform="translate(322,322)"/>
<path d="M0 0 C7.66721877 -0.3155715 14.04602549 -0.47698725 21 3 C21.33 3.66 21.66 4.32 22 5 C20.68 5.99 19.36 6.98 18 8 C17.43796875 7.68289063 16.8759375 7.36578125 16.296875 7.0390625 C13.84803683 5.93125475 11.91612145 5.61024601 9.25 5.375 C8.05117188 5.26285156 8.05117188 5.26285156 6.828125 5.1484375 C6.22484375 5.09945313 5.6215625 5.05046875 5 5 C5 4.01 5 3.02 5 2 C3.35 1.67 1.7 1.34 0 1 C0 0.67 0 0.34 0 0 Z " fill="#002A1E" transform="translate(303,317)"/>
<path d="M0 0 C0 3.9478088 -1.33724565 5.18508826 -4 8 C-4.99 8 -5.98 8 -7 8 C-7.2475 8.59296875 -7.495 9.1859375 -7.75 9.796875 C-9.18968863 12.3343262 -10.65151493 13.54044102 -13 15.25 C-13.70125 15.77078125 -14.4025 16.2915625 -15.125 16.828125 C-17 18 -17 18 -19 18 C-18.67 19.65 -18.34 21.3 -18 23 C-18.66 23.33 -19.32 23.66 -20 24 C-20 23.34 -20 22.68 -20 22 C-21.98 22.66 -23.96 23.32 -26 24 C-15.53271028 11.17757009 -15.53271028 11.17757009 -9 9 C-9 8.34 -9 7.68 -9 7 C-8.360625 6.896875 -7.72125 6.79375 -7.0625 6.6875 C-6.0415625 6.3471875 -6.0415625 6.3471875 -5 6 C-4.67 5.01 -4.34 4.02 -4 3 C-3.34 3 -2.68 3 -2 3 C-2 2.34 -2 1.68 -2 1 C-1.34 0.67 -0.68 0.34 0 0 Z " fill="#10B98E" transform="translate(217,167)"/>
<path d="M0 0 C-3.49359465 3.59634744 -7.11098131 6.83451967 -11 10 C-10.67 7.69 -10.34 5.38 -10 3 C-14.95 3 -19.9 3 -25 3 C-25 2.67 -25 2.34 -25 2 C-8.29157175 -0.29612756 -8.29157175 -0.29612756 0 0 Z " fill="#15C497" transform="translate(327,104)"/>
<path d="M0 0 C2.74107258 2.74107258 2.68723296 4.97343859 3.0390625 8.734375 C2.98494992 11.87290452 2.04240961 13.65501119 0 16 C-0.66 16 -1.32 16 -2 16 C-2.33 17.32 -2.66 18.64 -3 20 C-4.32 20 -5.64 20 -7 20 C-7 20.66 -7 21.32 -7 22 C-13.27 22 -19.54 22 -26 22 C-26 21.67 -26 21.34 -26 21 C-24.22882813 20.94392578 -24.22882813 20.94392578 -22.421875 20.88671875 C-20.86455212 20.82104851 -19.30726186 20.75460153 -17.75 20.6875 C-16.97269531 20.66494141 -16.19539063 20.64238281 -15.39453125 20.61914062 C-10.96639215 20.41098024 -8.38027076 20.12089355 -5 17 C-4.34 17 -3.68 17 -3 17 C-1.25314692 13.17254549 -0.65113667 9.87557277 -0.375 5.6875 C-0.30023438 4.61886719 -0.22546875 3.55023438 -0.1484375 2.44921875 C-0.09945313 1.64097656 -0.05046875 0.83273437 0 0 Z " fill="#10A37D" transform="translate(329,327)"/>
<path d="M0 0 C1.27617187 -0.01836914 1.27617187 -0.01836914 2.578125 -0.03710938 C7.04118112 -0.04753708 10.57046621 0.07680648 14.625 2.1875 C14.295 2.8475 13.965 3.5075 13.625 4.1875 C12.965 3.8575 12.305 3.5275 11.625 3.1875 C7.18595072 1.70781691 2.91274959 1.69595786 -1.65893555 2.67822266 C-4.43699934 3.19912523 -7.07160433 3.39351246 -9.89453125 3.50390625 C-10.91611328 3.54580078 -11.93769531 3.58769531 -12.99023438 3.63085938 C-14.04533203 3.67017578 -15.10042969 3.70949219 -16.1875 3.75 C-17.26193359 3.79318359 -18.33636719 3.83636719 -19.44335938 3.88085938 C-22.08712082 3.98660983 -24.7309711 4.08870233 -27.375 4.1875 C-27.045 3.5275 -26.715 2.8675 -26.375 2.1875 C-23.3203125 1.80859375 -23.3203125 1.80859375 -19.5 1.625 C-12.82991709 1.28944141 -6.72341294 0.00504761 0 0 Z " fill="#13AD87" transform="translate(329.375,92.8125)"/>
<path d="M0 0 C10.30769231 0 10.30769231 0 14 3 C14.33 3.66 14.66 4.32 15 5 C13.68 5 12.36 5 11 5 C11 4.01 11 3.02 11 2 C7.7 1.67 4.4 1.34 1 1 C1 7.6 1 14.2 1 21 C5.07367344 20.41804665 8.9978771 19.84893516 13 19 C11.5625 20.5 11.5625 20.5 9 22 C6.03 22 3.06 22 0 22 C0 14.74 0 7.48 0 0 Z " fill="#19B48C" transform="translate(308,322)"/>
<path d="M0 0 C3.57104439 1.87949705 5.54744301 3.17053157 7 7 C6.01 7.495 6.01 7.495 5 8 C4.53348793 10.12576782 4.53348793 10.12576782 4.375 12.5625 C4.30023438 13.38878906 4.22546875 14.21507812 4.1484375 15.06640625 C4.09945313 15.70449219 4.05046875 16.34257812 4 17 C3.67 17 3.34 17 3 17 C2.95101563 16.38511719 2.90203125 15.77023437 2.8515625 15.13671875 C2.77679688 14.32847656 2.70203125 13.52023437 2.625 12.6875 C2.55539062 11.88699219 2.48578125 11.08648437 2.4140625 10.26171875 C2.10435574 7.72775559 2.10435574 7.72775559 0 5 C-2.18505129 4.20562077 -2.18505129 4.20562077 -4.625 3.8125 C-5.85089844 3.57466797 -5.85089844 3.57466797 -7.1015625 3.33203125 C-7.72804688 3.22246094 -8.35453125 3.11289062 -9 3 C-9 2.67 -9 2.34 -9 2 C-6.03 2 -3.06 2 0 2 C0 1.34 0 0.68 0 0 Z " fill="#01291D" transform="translate(289,319)"/>
<path d="M0 0 C0.76166977 0.00222061 1.52333954 0.00444122 2.30809021 0.00672913 C3.16890701 0.00680466 4.02972382 0.00688019 4.91662598 0.00695801 C5.8520372 0.01211929 6.78744843 0.01728058 7.75120544 0.02259827 C8.70422043 0.02401321 9.65723541 0.02542816 10.63912964 0.02688599 C13.69605085 0.032503 16.75289996 0.04505836 19.80979919 0.05775452 C21.87685543 0.06276733 23.94391281 0.06733061 26.01097107 0.07142639 C31.08977507 0.08247795 36.16852489 0.09975397 41.24729919 0.12025452 C41.74229919 1.11025452 41.74229919 1.11025452 42.24729919 2.12025452 C41.01576111 2.1150177 39.78422302 2.10978088 38.5153656 2.10438538 C33.95694197 2.08631899 29.39852152 2.07481648 24.84007263 2.06532288 C22.86513233 2.06028642 20.89019576 2.053457 18.91526794 2.04481506 C16.08062315 2.03271944 13.24602754 2.02701942 10.41136169 2.02259827 C9.52485931 2.01743698 8.63835693 2.0122757 7.72499084 2.00695801 C3.3495868 1.8662336 3.3495868 1.8662336 -0.75270081 3.12025452 C-1.41270081 2.46025452 -2.07270081 1.80025452 -2.75270081 1.12025452 C-1.75270081 0.12025452 -1.75270081 0.12025452 0 0 Z " fill="#001809" transform="translate(246.75270080566406,192.87974548339844)"/>
<path d="M0 0 C3.63 0 7.26 0 11 0 C11 1.65 11 3.3 11 5 C7.37 5 3.74 5 0 5 C0 7.97 0 10.94 0 14 C-0.33 14 -0.66 14 -1 14 C-1 10.37 -1 6.74 -1 3 C2.3 3 5.6 3 9 3 C9 2.34 9 1.68 9 1 C6.03 1 3.06 1 0 1 C0 0.67 0 0.34 0 0 Z " fill="#003F2C" transform="translate(339,330)"/>
<path d="M0 0 C0.33 0 0.66 0 1 0 C1 6.6 1 13.2 1 20 C-2.13111343 16.86888657 -3.5143519 15.46924593 -5.25 11.75 C-5.58515625 11.04359375 -5.9203125 10.3371875 -6.265625 9.609375 C-6.62914062 8.81273437 -6.62914062 8.81273437 -7 8 C-6.01 8 -5.02 8 -4 8 C-4 8.99 -4 9.98 -4 11 C-3.01 11 -2.02 11 -1 11 C-0.67 7.37 -0.34 3.74 0 0 Z " fill="#14BC92" transform="translate(255,318)"/>
<path d="M0 0 C2.31986067 1.97188157 3.4930891 3.93649326 4.8125 6.625 C5.75310389 8.48542082 5.75310389 8.48542082 7 10 C10.12688428 11.05175552 10.12688428 11.05175552 13 11 C13 11.33 13 11.66 13 12 C6.50159236 12.36783439 6.50159236 12.36783439 4.125 10.625 C3 9 3 9 2 7 C0.35 7 -1.3 7 -3 7 C-1.125 1.125 -1.125 1.125 0 0 Z " fill="#11AE86" transform="translate(218,337)"/>
<path d="M0 0 C3.2578125 -0.29296875 3.2578125 -0.29296875 7.125 -0.1875 C9.04699219 -0.14689453 9.04699219 -0.14689453 11.0078125 -0.10546875 C11.99523437 -0.07066406 12.98265625 -0.03585937 14 0 C14 0.99 14 1.98 14 3 C8.72 3 3.44 3 -2 3 C-1.34 2.01 -0.68 1.02 0 0 Z " fill="#000903" transform="translate(187,345)"/>
<path d="M0 0 C1.051875 0.556875 1.051875 0.556875 2.125 1.125 C5.79156248 2.24091032 7.46416054 1.27892066 11 0 C13.375 0.375 13.375 0.375 15 1 C12.8125 3.5625 12.8125 3.5625 10 6 C7.5 6.125 7.5 6.125 5 5 C2.1875 2.4375 2.1875 2.4375 0 0 Z " fill="#10B58D" transform="translate(256,153)"/>
<path d="M0 0 C0.33 4.29 0.66 8.58 1 13 C0.01 13.33 -0.98 13.66 -2 14 C-2.36368892 12.39796533 -2.71561952 10.79325797 -3.0625 9.1875 C-3.25972656 8.29417969 -3.45695312 7.40085937 -3.66015625 6.48046875 C-4 4 -4 4 -3 1 C-1 0 -1 0 0 0 Z " fill="#000501" transform="translate(271,326)"/>
<path d="M0 0 C3 1 3 1 4.1875 3.375 C5 6 5 6 5 9 C5.99 9.33 6.98 9.66 8 10 C8.3721042 11.32303717 8.70630173 12.65737935 9 14 C9.66 14.33 10.32 14.66 11 15 C11 15.66 11 16.32 11 17 C10.34 17 9.68 17 9 17 C7.08984375 14.55078125 7.08984375 14.55078125 4.9375 11.3125 C4.22464844 10.25675781 3.51179688 9.20101563 2.77734375 8.11328125 C1.14754581 5.25844838 0.38933108 3.22845312 0 0 Z " fill="#55D1B3" transform="translate(90,369)"/>
<path d="M0 0 C-1.32 0.33 -2.64 0.66 -4 1 C-4 1.66 -4 2.32 -4 3 C-9.94 3.495 -9.94 3.495 -16 4 C-16 4.66 -16 5.32 -16 6 C-17.32 5.67 -18.64 5.34 -20 5 C-13.01613678 0.75490667 -8.12410887 -0.13769676 0 0 Z " fill="#4BCEAF" transform="translate(123,56)"/>
<path d="M0 0 C0.66 0.33 1.32 0.66 2 1 C0.8125 3.9375 0.8125 3.9375 -1 7 C-4.29680103 8.21461091 -7.50814883 8.09976718 -11 8 C-11 7.34 -11 6.68 -11 6 C-9.9275 5.7525 -8.855 5.505 -7.75 5.25 C-4.00350563 4.00116854 -2.47926118 2.97511342 0 0 Z " fill="#0FB98C" transform="translate(163,214)"/>
<path d="M0 0 C0.33 0 0.66 0 1 0 C1.05416741 2.72943537 1.09375225 5.45778564 1.125 8.1875 C1.15013672 9.34088867 1.15013672 9.34088867 1.17578125 10.51757812 C1.21266851 14.8149434 0.9958504 18.07901831 -1 22 C-1.33 22 -1.66 22 -2 22 C-2.29883729 14.52906777 -1.15925507 7.36955011 0 0 Z " fill="#10AD86" transform="translate(344,106)"/>
<path d="M0 0 C3.98175544 2.10148204 6.35039045 4.36905358 9 8 C7.35 8 5.7 8 4 8 C3.67 8.66 3.34 9.32 3 10 C1.87119943 6.68885166 0.78697325 3.41021743 0 0 Z " fill="#3FD3AF" transform="translate(432,61)"/>
<path d="M0 0 C1.60517097 0.08733576 3.20921662 0.19552224 4.8125 0.3125 C6.15248047 0.39951172 6.15248047 0.39951172 7.51953125 0.48828125 C10.30604 1.06313581 11.24135754 1.8206856 13 4 C11.35 4.33 9.7 4.66 8 5 C8 4.34 8 3.68 8 3 C5.36 3 2.72 3 0 3 C0 2.01 0 1.02 0 0 Z " fill="#47D1AF" transform="translate(417,56)"/>
<path d="M0 0 C0.66 0 1.32 0 2 0 C1.63495936 5.66442374 0.9445679 10.00703705 -2 15 C-3.11563018 11.62953982 -2.86843709 9.25980759 -2.125 5.8125 C-1.94195312 4.93207031 -1.75890625 4.05164063 -1.5703125 3.14453125 C-1 1 -1 1 0 0 Z " fill="#51CEB1" transform="translate(446,362)"/>
<path d="M0 0 C0 3.13751221 -0.35179805 4.39757586 -2 7 C-2.99 7.33 -3.98 7.66 -5 8 C-5.33 8.66 -5.66 9.32 -6 10 C-8.5625 10.625 -8.5625 10.625 -11 11 C-7.6189962 6.86378916 -4.33409466 3.18683431 0 0 Z " fill="#11B58C" transform="translate(229,156)"/>
<path d="M0 0 C0.66 0 1.32 0 2 0 C2.66 1.98 3.32 3.96 4 6 C4.66 6 5.32 6 6 6 C6 9.96 6 13.92 6 18 C5.34 18.33 4.68 18.66 4 19 C4.04640625 18.34773438 4.0928125 17.69546875 4.140625 17.0234375 C4.39042067 10.97481381 3.83794403 7.91736579 0 3 C0 2.01 0 1.02 0 0 Z " fill="#12B68C" transform="translate(293,319)"/>
<path d="M0 0 C3.3 0 6.6 0 10 0 C10 0.99 10 1.98 10 3 C6.7 3 3.4 3 0 3 C0 2.01 0 1.02 0 0 Z " fill="#000905" transform="translate(191,318)"/>
<path d="M0 0 C2.475 0.99 2.475 0.99 5 2 C5 2.99 5 3.98 5 5 C3.02 4.34 1.04 3.68 -1 3 C-1.33 3.99 -1.66 4.98 -2 6 C-3.32 5.67 -4.64 5.34 -6 5 C-4.02 3.35 -2.04 1.7 0 0 Z " fill="#11B188" transform="translate(236,150)"/>
<path d="M0 0 C0.75667969 0.0928125 1.51335937 0.185625 2.29296875 0.28125 C1.63296875 1.60125 0.97296875 2.92125 0.29296875 4.28125 C-0.03703125 3.62125 -0.36703125 2.96125 -0.70703125 2.28125 C-3.32230506 4.64745011 -4.97143687 7.223298 -6.70703125 10.28125 C-7.36703125 9.95125 -8.02703125 9.62125 -8.70703125 9.28125 C-7.83342369 7.76819773 -6.93225362 6.27103362 -6.01953125 4.78125 C-5.27123047 3.52828125 -5.27123047 3.52828125 -4.5078125 2.25 C-2.70703125 0.28125 -2.70703125 0.28125 0 0 Z " fill="#01271B" transform="translate(227.70703125,317.71875)"/>
<path d="M0 0 C0.825 0.309375 1.65 0.61875 2.5 0.9375 C6.39126155 2.11877583 9.96166953 2.58224168 14 3 C14 3.33 14 3.66 14 4 C7.565 4.495 7.565 4.495 1 5 C0.67 3.35 0.34 1.7 0 0 Z " fill="#0FC395" transform="translate(272,346)"/>
<path d="M0 0 C0 3 0 3 -1.96875 5.04296875 C-2.8040625 5.75066406 -3.639375 6.45835937 -4.5 7.1875 C-5.3353125 7.90292969 -6.170625 8.61835938 -7.03125 9.35546875 C-7.6809375 9.89816406 -8.330625 10.44085938 -9 11 C-9.66 10.67 -10.32 10.34 -11 10 C-3.70159453 2.51708428 -3.70159453 2.51708428 0 0 Z " fill="#001E16" transform="translate(277,148)"/>
<path d="M0 0 C-1.01953125 1.51953125 -1.01953125 1.51953125 -3 3 C-5.67108574 3.05546517 -8.05292823 2.96547069 -10.6875 2.6875 C-11.38939453 2.62626953 -12.09128906 2.56503906 -12.81445312 2.50195312 C-14.5442967 2.34897376 -16.27238497 2.17637398 -18 2 C-18 1.67 -18 1.34 -18 1 C-11.93303301 0.22959149 -6.11485027 -0.09706112 0 0 Z " fill="#169475" transform="translate(327,104)"/>
<path d="M0 0 C0.66 0.33 1.32 0.66 2 1 C0.45950176 4.46612104 -1.30927882 7.30927882 -4 10 C-7.25 10.3125 -7.25 10.3125 -10 10 C-9.01 9.34 -8.02 8.68 -7 8 C-4.30161552 5.43324403 -2.06967424 3.10451137 0 0 Z " fill="#10B48A" transform="translate(296,339)"/>
<path d="M0 0 C0 3.96679333 -1.279315 5.20374041 -4 8 C-5.32 8 -6.64 8 -8 8 C-8 8.66 -8 9.32 -8 10 C-8.99 9.67 -9.98 9.34 -11 9 C-10.34 9 -9.68 9 -9 9 C-9 8.34 -9 7.68 -9 7 C-8.360625 6.896875 -7.72125 6.79375 -7.0625 6.6875 C-6.381875 6.460625 -5.70125 6.23375 -5 6 C-4.67 5.01 -4.34 4.02 -4 3 C-3.34 3 -2.68 3 -2 3 C-2 2.34 -2 1.68 -2 1 C-1.34 0.67 -0.68 0.34 0 0 Z " fill="#12AD86" transform="translate(217,167)"/>
<path d="M0 0 C5.94 0 11.88 0 18 0 C18 0.33 18 0.66 18 1 C14.04 1 10.08 1 6 1 C6 1.66 6 2.32 6 3 C4.02 2.34 2.04 1.68 0 1 C0 0.67 0 0.34 0 0 Z " fill="#11C79B" transform="translate(184,349)"/>
<path d="M0 0 C0.33 0.99 0.66 1.98 1 3 C2.65 3 4.3 3 6 3 C6 3.33 6 3.66 6 4 C4.35 4 2.7 4 1 4 C1.66 5.65 2.32 7.3 3 9 C2.01 9 1.02 9 0 9 C-1.36623674 6.26752652 -1.128426 4.01801098 -1 1 C-0.67 0.67 -0.34 0.34 0 0 Z " fill="#09A37D" transform="translate(207,314)"/>
<path d="M0 0 C0.99 1.485 0.99 1.485 2 3 C5.07921132 3.25660094 7.21136993 3.39431504 10 2 C9.67 3.32 9.34 4.64 9 6 C5.625 6.125 5.625 6.125 2 6 C1.34 5.34 0.68 4.68 0 4 C0 2.68 0 1.36 0 0 Z " fill="#0FAE84" transform="translate(178,282)"/>
<path d="M0 0 C0 1.66666667 0 3.33333333 0 5 C-3.33333333 6.33333333 -6.66666667 7.66666667 -10 9 C-6.83047153 5.73991357 -3.60062011 2.77762123 0 0 Z " fill="#12B089" transform="translate(190,191)"/>
<path d="M0 0 C0.66 0.33 1.32 0.66 2 1 C-0.97 3.97 -3.94 6.94 -7 10 C-7.99 9.67 -8.98 9.34 -10 9 C-6.7 6.03 -3.4 3.06 0 0 Z " fill="#002B1E" transform="translate(299,128)"/>
<path d="M0 0 C2.31 0 4.62 0 7 0 C7 0.99 7 1.98 7 3 C4.03 3 1.06 3 -2 3 C-1.34 2.67 -0.68 2.34 0 2 C0 1.34 0 0.68 0 0 Z " fill="#000907" transform="translate(193,331)"/>
<path d="M0 0 C1.65 0.33 3.3 0.66 5 1 C3.02 3.31 1.04 5.62 -1 8 C-2.2077558 4.37673261 -1.54311128 3.35853631 0 0 Z " fill="#10B88F" transform="translate(166,194)"/>
<path d="M0 0 C1.32 0.33 2.64 0.66 4 1 C1.36 2.98 -1.28 4.96 -4 7 C-4.33 5.68 -4.66 4.36 -5 3 C-4.01 2.67 -3.02 2.34 -2 2 C-1.34 2.33 -0.68 2.66 0 3 C0 2.01 0 1.02 0 0 Z " fill="#0FB88D" transform="translate(230,139)"/>
<path d="M0 0 C0.33 0.66 0.66 1.32 1 2 C1.66 2.33 2.32 2.66 3 3 C1.02 4.32 -0.96 5.64 -3 7 C-3.625 5.125 -3.625 5.125 -4 3 C-2 1 -2 1 0 0 Z " fill="#0BBF93" transform="translate(293,129)"/>
<path d="M0 0 C1.32 0 2.64 0 4 0 C3.60196439 2.88575819 3.20990931 3.82189513 0.9375 5.75 C0.298125 6.1625 -0.34125 6.575 -1 7 C-0.67 4.69 -0.34 2.38 0 0 Z " fill="#0CBA90" transform="translate(317,107)"/>
<path d="M0 0 C1.32 1.32 2.64 2.64 4 4 C2.35 5.32 0.7 6.64 -1 8 C-1.625 5.125 -1.625 5.125 -2 2 C-1.34 1.34 -0.68 0.68 0 0 Z " fill="#0DC093" transform="translate(285,134)"/>
<path d="M0 0 C0.33 0.66 0.66 1.32 1 2 C-0.32 3.65 -1.64 5.3 -3 7 C-4.32 6.67 -5.64 6.34 -7 6 C-4.69 4.02 -2.38 2.04 0 0 Z " fill="#11B88D" transform="translate(172,207)"/>
<path d="M0 0 C3.53600465 1.91135386 5.78972846 3.62642766 8 7 C5.03 6.505 5.03 6.505 2 6 C2 4.68 2 3.36 2 2 C1.34 2 0.68 2 0 2 C0 1.34 0 0.68 0 0 Z " fill="#13B188" transform="translate(248,159)"/>
<path d="M0 0 C0.66 0.66 1.32 1.32 2 2 C-0.97 4.475 -0.97 4.475 -4 7 C-4 5.02 -4 3.04 -4 1 C-2.125 0.375 -2.125 0.375 0 0 Z " fill="#0EBC8F" transform="translate(304,121)"/>
<path d="M0 0 C2 0 2 0 3.5 1.1875 C5.26495414 3.32015292 6.08699059 5.40143476 7 8 C6.01 8 5.02 8 4 8 C2.68 5.36 1.36 2.72 0 0 Z " fill="#11B68B" transform="translate(242,317)"/>
<path d="M0 0 C0.99 0 1.98 0 3 0 C3.33 1.32 3.66 2.64 4 4 C3.01 4.495 3.01 4.495 2 5 C2 4.34 2 3.68 2 3 C0.02 3.66 -1.96 4.32 -4 5 C-2.1875 2.5 -2.1875 2.5 0 0 Z " fill="#0BC192" transform="translate(195,186)"/>
<path d="M0 0 C0.721875 0.45375 1.44375 0.9075 2.1875 1.375 C4.74894081 2.85494358 7.23277989 3.97217539 10 5 C10 5.33 10 5.66 10 6 C7.69 6 5.38 6 3 6 C2.67 4.68 2.34 3.36 2 2 C1.34 2 0.68 2 0 2 C0 1.34 0 0.68 0 0 Z " fill="#12BA8F" transform="translate(256,166)"/>
<path d="M0 0 C0.33 0.99 0.66 1.98 1 3 C-0.98 4.32 -2.96 5.64 -5 7 C-5.66 6.67 -6.32 6.34 -7 6 C-4.69 4.02 -2.38 2.04 0 0 Z " fill="#15B289" transform="translate(277,161)"/>
<path d="M0 0 C0.66 0.66 1.32 1.32 2 2 C1.34 2 0.68 2 0 2 C0.66 3.32 1.32 4.64 2 6 C1.01 6 0.02 6 -1 6 C-1.66 4.35 -2.32 2.7 -3 1 C-2.01 0.67 -1.02 0.34 0 0 Z " fill="#0FBD91" transform="translate(229,338)"/>
<path d="M0 0 C0 0.99 0 1.98 0 3 C-2.5 5.1875 -2.5 5.1875 -5 7 C-5.66 6.67 -6.32 6.34 -7 6 C-4.69 4.02 -2.38 2.04 0 0 Z " fill="#00291D" transform="translate(178,189)"/>
</svg>
